# xmcd
#
# Track frame offsets:
# 150
# 13702
# 26117
# 36602
# 47602
# 59097
# 69787
# 79230
# 90407
# 103275
# 114672
# 123972
#
# Disc length: 1766 seconds
#
#
# Revision: 2
# Processed by: cddbd v1.5.1PL2 Copyright (c) Steve Scherf et al.
# Submitted via: FreeRIP 2.945 
#
DISCID=a306e40c
DTITLE=Webb Pierce - 20th Century Masters The Millennium Collection
DYEAR=2001
DGENRE=Country
TTITLE0=Wondering
TTITLE1=Back Street Affair
TTITLE2=It's Been So Long
TTITLE3=There Stands The Glass
TTITLE4=Slowly
TTITLE5=More and More
TTITLE6=In The Jailhouse Now
TTITLE7=I Don't Care
TTITLE8=Love, Love, Love
TTITLE9=Why Baby Why
TTITLE10=Honky Tonk Song
TTITLE11=I Ain't Never
EXTD=Decca Records
EXTT0=
EXTT1=
EXTT2=
EXTT3=
EXTT4=
EXTT5=
EXTT6=
EXTT7=
EXTT8=
EXTT9=
EXTT10=
EXTT11=
PLAYORDER=
